<svg width="106" height="106" viewBox="0 0 106 106" fill="none" xmlns="http://www.w3.org/2000/svg">
<rect width="106" height="106" rx="53" fill="url(#paint0_linear_1720_11510)"/>
<path fill-rule="evenodd" clip-rule="evenodd" d="M61.5472 33.805C57.4107 31.9619 52.7893 31.5053 48.3722 32.5033C43.955 33.5013 39.9788 35.9004 37.0366 39.3429C34.0943 42.7853 32.3436 47.0866 32.0457 51.6053C31.7477 56.1239 32.9184 60.6179 35.3832 64.4168C37.8479 68.2158 41.4747 71.1163 45.7226 72.6856C49.9704 74.255 54.6118 74.4092 58.9544 73.1252C63.2971 71.8412 67.1083 69.1879 69.8198 65.5608C72.5312 61.9338 73.9976 57.5275 74.0002 52.999V50.8537C74.0002 49.565 75.0448 48.5203 76.3335 48.5203C77.6222 48.5203 78.6668 49.565 78.6668 50.8537V53.0003C78.6637 58.5352 76.8714 63.922 73.5574 68.355C70.2435 72.788 65.5853 76.031 60.2776 77.6003C54.9699 79.1697 49.2971 78.9812 44.1053 77.0631C38.9135 75.145 34.4808 71.6 31.4683 66.9568C28.4558 62.3136 27.025 56.821 27.3891 51.2982C27.7533 45.7754 29.893 40.5182 33.4891 36.3108C37.0852 32.1034 41.945 29.1712 47.3437 27.9514C52.7425 26.7316 58.3909 27.2897 63.4465 29.5423C64.6236 30.0668 65.1527 31.4462 64.6282 32.6233C64.1037 33.8004 62.7243 34.3295 61.5472 33.805ZM77.9826 32.6829C78.8943 33.5937 78.895 35.0711 77.9842 35.9828L54.6509 59.3394C54.2134 59.7774 53.6198 60.0235 53.0008 60.0237C52.3817 60.0238 51.788 59.778 51.3503 59.3403L44.3503 52.3403C43.439 51.429 43.439 49.9516 44.3503 49.0404C45.2615 48.1292 46.7389 48.1292 47.6501 49.0404L52.9994 54.3897L74.6828 32.6846C75.5935 31.7729 77.0709 31.7722 77.9826 32.6829Z" fill="white"/>
<defs>
<linearGradient id="paint0_linear_1720_11510" x1="0" y1="0" x2="106" y2="106" gradientUnits="userSpaceOnUse">
<stop stop-color="#5353EE"/>
<stop offset="1" stop-color="#F7B6B6"/>
</linearGradient>
</defs>
</svg>
