<svg width="28" height="20" viewBox="0 0 28 20" fill="none" xmlns="http://www.w3.org/2000/svg">
<path fill-rule="evenodd" clip-rule="evenodd" d="M0.666504 2.00033C0.666504 1.26395 1.26346 0.666992 1.99984 0.666992H25.9998C26.7362 0.666992 27.3332 1.26395 27.3332 2.00033C27.3332 2.73671 26.7362 3.33366 25.9998 3.33366H1.99984C1.26346 3.33366 0.666504 2.73671 0.666504 2.00033ZM0.666504 10.0003C0.666504 9.26395 1.26346 8.66699 1.99984 8.66699H25.9998C26.7362 8.66699 27.3332 9.26395 27.3332 10.0003C27.3332 10.7367 26.7362 11.3337 25.9998 11.3337H1.99984C1.26346 11.3337 0.666504 10.7367 0.666504 10.0003ZM0.666504 18.0003C0.666504 17.2639 1.26346 16.667 1.99984 16.667H25.9998C26.7362 16.667 27.3332 17.2639 27.3332 18.0003C27.3332 18.7367 26.7362 19.3337 25.9998 19.3337H1.99984C1.26346 19.3337 0.666504 18.7367 0.666504 18.0003Z" fill="#212325"/>
</svg>
