<svg width="36" height="36" viewBox="0 0 36 36" fill="none" xmlns="http://www.w3.org/2000/svg">
<rect width="36" height="36" rx="18" fill="#FC6666"/>
<g clip-path="url(#clip0_809_5812)">
<path d="M19.2497 13.8333C19.4798 13.8333 19.6663 13.6468 19.6663 13.4167C19.6663 13.1865 19.4798 13 19.2497 13C19.0196 13 18.833 13.1865 18.833 13.4167C18.833 13.6468 19.0196 13.8333 19.2497 13.8333Z" fill="white" stroke="white" stroke-width="1.66667" stroke-linecap="round" stroke-linejoin="round"/>
<path d="M22.5837 17.1673C22.8138 17.1673 23.0003 16.9808 23.0003 16.7507C23.0003 16.5205 22.8138 16.334 22.5837 16.334C22.3535 16.334 22.167 16.5205 22.167 16.7507C22.167 16.9808 22.3535 17.1673 22.5837 17.1673Z" fill="white" stroke="white" stroke-width="1.66667" stroke-linecap="round" stroke-linejoin="round"/>
<path d="M15.0837 14.6673C15.3138 14.6673 15.5003 14.4808 15.5003 14.2507C15.5003 14.0205 15.3138 13.834 15.0837 13.834C14.8535 13.834 14.667 14.0205 14.667 14.2507C14.667 14.4808 14.8535 14.6673 15.0837 14.6673Z" fill="white" stroke="white" stroke-width="1.66667" stroke-linecap="round" stroke-linejoin="round"/>
<path d="M13.4167 18.8333C13.6468 18.8333 13.8333 18.6468 13.8333 18.4167C13.8333 18.1865 13.6468 18 13.4167 18C13.1865 18 13 18.1865 13 18.4167C13 18.6468 13.1865 18.8333 13.4167 18.8333Z" fill="white" stroke="white" stroke-width="1.66667" stroke-linecap="round" stroke-linejoin="round"/>
<path d="M18.0003 9.66602C13.417 9.66602 9.66699 13.416 9.66699 17.9993C9.66699 22.5827 13.417 26.3327 18.0003 26.3327C18.772 26.3327 19.3737 25.711 19.3737 24.926C19.3737 24.5618 19.2237 24.2302 19.0095 23.9885C18.7678 23.7477 18.6445 23.4452 18.6445 23.051C18.6413 22.8676 18.6751 22.6854 18.7439 22.5154C18.8126 22.3453 18.9149 22.1908 19.0446 22.0611C19.1743 21.9314 19.3288 21.8291 19.4988 21.7604C19.6689 21.6917 19.8511 21.6579 20.0345 21.661H21.6978C24.2403 21.661 26.327 19.5752 26.327 17.0327C26.3045 13.0093 22.5512 9.66602 18.0003 9.66602Z" stroke="white" stroke-width="1.66667" stroke-linecap="round" stroke-linejoin="round"/>
</g>
<defs>
<clipPath id="clip0_809_5812">
<rect width="20" height="20" fill="white" transform="translate(8 8)"/>
</clipPath>
</defs>
</svg>
