<svg width="36" height="36" viewBox="0 0 36 36" fill="none" xmlns="http://www.w3.org/2000/svg">
<rect width="36" height="36" rx="18" fill="#7266FC"/>
<path d="M22.8333 24L21.3333 17.1667L24.25 14.25C25.5 13 25.9167 11.3333 25.5 10.5C24.6667 10.0833 23 10.5 21.75 11.75L18.8333 14.6667L12 13.1667C11.5833 13.0833 11.25 13.25 11.0833 13.5833L10.8333 14C10.6667 14.4167 10.75 14.8333 11.0833 15.0833L15.5 18L13.8333 20.5H11.3333L10.5 21.3333L13 23L14.6667 25.5L15.5 24.6667V22.1667L18 20.5L20.9167 24.9167C21.1667 25.25 21.5833 25.3333 22 25.1667L22.4167 25C22.75 24.75 22.9167 24.4167 22.8333 24Z" stroke="white" stroke-width="1.66667" stroke-linecap="round" stroke-linejoin="round"/>
</svg>
