<svg width="36" height="36" viewBox="0 0 36 36" fill="none" xmlns="http://www.w3.org/2000/svg">
<rect width="36" height="36" rx="18" fill="#635BC6"/>
<path d="M21.3333 12.1667C21.7936 12.1667 22.1667 11.7936 22.1667 11.3333C22.1667 10.8731 21.7936 10.5 21.3333 10.5C20.8731 10.5 20.5 10.8731 20.5 11.3333C20.5 11.7936 20.8731 12.1667 21.3333 12.1667Z" stroke="white" stroke-width="1.66667" stroke-linecap="round" stroke-linejoin="round"/>
<path d="M22.9997 23.8333L23.833 18L18.833 18.8333" stroke="white" stroke-width="1.66667" stroke-linecap="round" stroke-linejoin="round"/>
<path d="M12.167 14.666L14.667 12.166L19.2503 14.666L17.2837 17.5827" stroke="white" stroke-width="1.66667" stroke-linecap="round" stroke-linejoin="round"/>
<path d="M11.5336 20.084C11.2984 20.8532 11.291 21.674 11.5121 22.4474C11.7332 23.2208 12.1734 23.9136 12.7796 24.4423C13.3858 24.9709 14.1321 25.3129 14.9284 25.4267C15.7246 25.5406 16.5368 25.4216 17.2669 25.084" stroke="white" stroke-width="1.66667" stroke-linecap="round" stroke-linejoin="round"/>
<path d="M19.4667 22.5839C19.7019 21.8147 19.7093 20.9939 19.4882 20.2205C19.2671 19.4471 18.8269 18.7543 18.2207 18.2256C17.6145 17.697 16.8682 17.3551 16.0719 17.2412C15.2757 17.1273 14.4635 17.2464 13.7334 17.5839" stroke="white" stroke-width="1.66667" stroke-linecap="round" stroke-linejoin="round"/>
</svg>
