<svg width="36" height="36" viewBox="0 0 36 36" fill="none" xmlns="http://www.w3.org/2000/svg">
<rect width="36" height="36" rx="18" fill="#5A596E"/>
<path d="M13.0003 23.8327C14.8413 23.8327 16.3337 22.3403 16.3337 20.4993C16.3337 18.6584 14.8413 17.166 13.0003 17.166C11.1594 17.166 9.66699 18.6584 9.66699 20.4993C9.66699 22.3403 11.1594 23.8327 13.0003 23.8327Z" stroke="white" stroke-width="1.66667" stroke-linecap="round" stroke-linejoin="round"/>
<path d="M23.0003 23.8327C24.8413 23.8327 26.3337 22.3403 26.3337 20.4993C26.3337 18.6584 24.8413 17.166 23.0003 17.166C21.1594 17.166 19.667 18.6584 19.667 20.4993C19.667 22.3403 21.1594 23.8327 23.0003 23.8327Z" stroke="white" stroke-width="1.66667" stroke-linecap="round" stroke-linejoin="round"/>
<path d="M19.6663 20.5007C19.6663 20.0586 19.4907 19.6347 19.1782 19.3221C18.8656 19.0096 18.4417 18.834 17.9997 18.834C17.5576 18.834 17.1337 19.0096 16.8212 19.3221C16.5086 19.6347 16.333 20.0586 16.333 20.5007" stroke="white" stroke-width="1.66667" stroke-linecap="round" stroke-linejoin="round"/>
<path d="M10.083 18.8327L12.1663 13.8327C12.7497 12.7493 13.333 12.166 14.6663 12.166" stroke="white" stroke-width="1.66667" stroke-linecap="round" stroke-linejoin="round"/>
<path d="M25.9163 18.8327L23.833 13.8327C23.2497 12.7493 22.583 12.166 21.333 12.166" stroke="white" stroke-width="1.66667" stroke-linecap="round" stroke-linejoin="round"/>
</svg>
