<svg width="36" height="36" viewBox="0 0 36 36" fill="none" xmlns="http://www.w3.org/2000/svg">
<rect width="36" height="36" rx="18" fill="#FB7951"/>
<path d="M14.9169 16.3327C14.8095 16.3385 14.7025 16.3146 14.6078 16.2635C14.5132 16.2123 14.4345 16.136 14.3805 16.0429C14.3265 15.9499 14.2993 15.8437 14.3019 15.7362C14.3045 15.6286 14.3368 15.5239 14.3952 15.4335L17.5002 10.4993C17.549 10.4115 17.6197 10.3377 17.7054 10.2852C17.791 10.2327 17.8888 10.2032 17.9893 10.1996C18.0897 10.196 18.1894 10.2184 18.2786 10.2646C18.3678 10.3109 18.4436 10.3794 18.4985 10.4635L21.5835 15.416C21.6444 15.5033 21.6801 15.6056 21.687 15.7118C21.6938 15.818 21.6715 15.9241 21.6224 16.0185C21.5733 16.1129 21.4993 16.1921 21.4084 16.2475C21.3176 16.3028 21.2133 16.3323 21.1069 16.3327H14.9169Z" stroke="white" stroke-width="1.66667" stroke-linecap="round" stroke-linejoin="round"/>
<path d="M15.5 19.666H11.3333C10.8731 19.666 10.5 20.0391 10.5 20.4993V24.666C10.5 25.1263 10.8731 25.4993 11.3333 25.4993H15.5C15.9602 25.4993 16.3333 25.1263 16.3333 24.666V20.4993C16.3333 20.0391 15.9602 19.666 15.5 19.666Z" stroke="white" stroke-width="1.66667" stroke-linecap="round" stroke-linejoin="round"/>
<path d="M22.5837 25.4993C24.1945 25.4993 25.5003 24.1935 25.5003 22.5827C25.5003 20.9719 24.1945 19.666 22.5837 19.666C20.9728 19.666 19.667 20.9719 19.667 22.5827C19.667 24.1935 20.9728 25.4993 22.5837 25.4993Z" stroke="white" stroke-width="1.66667" stroke-linecap="round" stroke-linejoin="round"/>
</svg>
