<svg width="36" height="36" viewBox="0 0 36 36" fill="none" xmlns="http://www.w3.org/2000/svg">
<rect width="36" height="36" rx="18" fill="#FD57D8"/>
<path d="M23.8337 19.6667C25.0753 18.45 26.3337 16.9917 26.3337 15.0833C26.3337 13.8678 25.8508 12.702 24.9912 11.8424C24.1317 10.9829 22.9659 10.5 21.7503 10.5C20.2837 10.5 19.2503 10.9167 18.0003 12.1667C16.7503 10.9167 15.717 10.5 14.2503 10.5C13.0347 10.5 11.869 10.9829 11.0094 11.8424C10.1499 12.702 9.66699 13.8678 9.66699 15.0833C9.66699 17 10.917 18.4583 12.167 19.6667L18.0003 25.5L23.8337 19.6667Z" stroke="white" stroke-width="1.66667" stroke-linecap="round" stroke-linejoin="round"/>
<path d="M10.6836 18.0007H15.9169L16.3336 17.1673L18.0003 20.9173L19.6669 15.084L20.9169 18.0007H25.3086" stroke="white" stroke-width="1.66667" stroke-linecap="round" stroke-linejoin="round"/>
</svg>
