<svg width="36" height="36" viewBox="0 0 36 36" fill="none" xmlns="http://www.w3.org/2000/svg">
<rect width="36" height="36" rx="18" fill="#1D73C3"/>
<g clip-path="url(#clip0_2215_2712)">
<path d="M11.208 15.1826C11.0864 14.6347 11.105 14.065 11.2623 13.5262C11.4196 12.9875 11.7103 12.4971 12.1076 12.1007C12.5048 11.7043 12.9958 11.4146 13.5348 11.2584C14.0739 11.1023 14.6437 11.0848 15.1913 11.2076C15.4928 10.7362 15.908 10.3482 16.3988 10.0795C16.8896 9.81078 17.4401 9.66992 17.9997 9.66992C18.5592 9.66992 19.1098 9.81078 19.6005 10.0795C20.0913 10.3482 20.5066 10.7362 20.808 11.2076C21.3565 11.0843 21.9272 11.1017 22.4672 11.2582C23.0071 11.4147 23.4987 11.7052 23.8962 12.1027C24.2937 12.5002 24.5842 12.9918 24.7407 13.5318C24.8972 14.0717 24.9147 14.6425 24.7913 15.1909C25.2628 15.4924 25.6507 15.9076 25.9194 16.3984C26.1882 16.8892 26.329 17.4397 26.329 17.9993C26.329 18.5588 26.1882 19.1094 25.9194 19.6001C25.6507 20.0909 25.2628 20.5062 24.7913 20.8076C24.9141 21.3552 24.8966 21.925 24.7405 22.4641C24.5844 23.0032 24.2947 23.4941 23.8982 23.8914C23.5018 24.2886 23.0115 24.5794 22.4727 24.7366C21.934 24.8939 21.3642 24.9126 20.8163 24.7909C20.5153 25.2642 20.0997 25.6538 19.6081 25.9237C19.1165 26.1936 18.5647 26.3351 18.0038 26.3351C17.443 26.3351 16.8912 26.1936 16.3996 25.9237C15.9079 25.6538 15.4924 25.2642 15.1913 24.7909C14.6437 24.9137 14.0739 24.8962 13.5348 24.7401C12.9958 24.584 12.5048 24.2943 12.1076 23.8978C11.7103 23.5014 11.4196 23.0111 11.2623 22.4723C11.105 21.9336 11.0864 21.3638 11.208 20.8159C10.733 20.5153 10.3417 20.0994 10.0705 19.6069C9.79941 19.1145 9.65723 18.5614 9.65723 17.9993C9.65723 17.4371 9.79941 16.8841 10.0705 16.3916C10.3417 15.8991 10.733 15.4832 11.208 15.1826Z" stroke="white" stroke-width="1.66667" stroke-linecap="round" stroke-linejoin="round"/>
<path d="M21.3337 14.666H16.3337C15.8916 14.666 15.4677 14.8416 15.1551 15.1542C14.8426 15.4667 14.667 15.8907 14.667 16.3327C14.667 16.7747 14.8426 17.1986 15.1551 17.5112C15.4677 17.8238 15.8916 17.9993 16.3337 17.9993H19.667C20.109 17.9993 20.5329 18.1749 20.8455 18.4875C21.1581 18.8001 21.3337 19.224 21.3337 19.666C21.3337 20.108 21.1581 20.532 20.8455 20.8445C20.5329 21.1571 20.109 21.3327 19.667 21.3327H14.667" stroke="white" stroke-width="1.66667" stroke-linecap="round" stroke-linejoin="round"/>
<path d="M18 23V13" stroke="white" stroke-width="1.66667" stroke-linecap="round" stroke-linejoin="round"/>
</g>
<defs>
<clipPath id="clip0_2215_2712">
<rect width="20" height="20" fill="white" transform="translate(8 8)"/>
</clipPath>
</defs>
</svg>
