<svg width="36" height="36" viewBox="0 0 36 36" fill="none" xmlns="http://www.w3.org/2000/svg">
<rect width="36" height="36" rx="18" fill="#1DC391"/>
<path d="M10.042 14.0254V15.6171L14.817 17.2087V21.1837V26.7504H16.4087L17.167 21.9087C17.167 21.6877 17.2548 21.4757 17.4111 21.3195C17.5674 21.1632 17.7793 21.0754 18.0003 21.0754C18.2213 21.0754 18.4333 21.1632 18.5896 21.3195C18.7459 21.4757 18.8337 21.6877 18.8337 21.9087L19.5753 26.7504H21.167V17.2087L25.942 15.6171V14.0254H10.042Z" stroke="white" stroke-width="1.66667" stroke-miterlimit="10"/>
<path d="M17.9995 14.0167C19.3158 14.0167 20.3829 12.9496 20.3829 11.6333C20.3829 10.3171 19.3158 9.25 17.9995 9.25C16.6833 9.25 15.6162 10.3171 15.6162 11.6333C15.6162 12.9496 16.6833 14.0167 17.9995 14.0167Z" stroke="white" stroke-width="1.66667" stroke-miterlimit="10"/>
</svg>
