<svg width="36" height="36" viewBox="0 0 36 36" fill="none" xmlns="http://www.w3.org/2000/svg">
<rect width="36" height="36" rx="18" fill="#1DAFC3"/>
<path d="M22.1663 23.0007C22.1663 22.5586 21.9907 22.1347 21.6782 21.8221C21.3656 21.5096 20.9417 21.334 20.4997 21.334H15.4997C15.0576 21.334 14.6337 21.5096 14.3212 21.8221C14.0086 22.1347 13.833 22.5586 13.833 23.0007" stroke="white" stroke-width="1.66667" stroke-linecap="round" stroke-linejoin="round"/>
<path d="M23.8333 11.334H12.1667C11.2462 11.334 10.5 12.0802 10.5 13.0007V24.6673C10.5 25.5878 11.2462 26.334 12.1667 26.334H23.8333C24.7538 26.334 25.5 25.5878 25.5 24.6673V13.0007C25.5 12.0802 24.7538 11.334 23.8333 11.334Z" stroke="white" stroke-width="1.66667" stroke-linecap="round" stroke-linejoin="round"/>
<path d="M17.9997 17.9993C18.9201 17.9993 19.6663 17.2532 19.6663 16.3327C19.6663 15.4122 18.9201 14.666 17.9997 14.666C17.0792 14.666 16.333 15.4122 16.333 16.3327C16.333 17.2532 17.0792 17.9993 17.9997 17.9993Z" stroke="white" stroke-width="1.66667" stroke-linecap="round" stroke-linejoin="round"/>
<path d="M14.667 9.66602V11.3327" stroke="white" stroke-width="1.66667" stroke-linecap="round" stroke-linejoin="round"/>
<path d="M21.333 9.66602V11.3327" stroke="white" stroke-width="1.66667" stroke-linecap="round" stroke-linejoin="round"/>
</svg>
