<svg width="36" height="36" viewBox="0 0 36 36" fill="none" xmlns="http://www.w3.org/2000/svg">
<rect width="36" height="36" rx="18" fill="#3CA7F5"/>
<path d="M9.66699 10.5H14.667C15.551 10.5 16.3989 10.8512 17.024 11.4763C17.6491 12.1014 18.0003 12.9493 18.0003 13.8333V25.5C18.0003 24.837 17.7369 24.2011 17.2681 23.7322C16.7993 23.2634 16.1634 23 15.5003 23H9.66699V10.5Z" stroke="white" stroke-width="1.66667" stroke-linecap="round" stroke-linejoin="round"/>
<path d="M26.3333 10.5H21.3333C20.4493 10.5 19.6014 10.8512 18.9763 11.4763C18.3512 12.1014 18 12.9493 18 13.8333V25.5C18 24.837 18.2634 24.2011 18.7322 23.7322C19.2011 23.2634 19.837 23 20.5 23H26.3333V10.5Z" stroke="white" stroke-width="1.66667" stroke-linecap="round" stroke-linejoin="round"/>
<path d="M13 14.666H14.6667" stroke="white" stroke-width="1.66667" stroke-linecap="round" stroke-linejoin="round"/>
<path d="M13 18H14.6667" stroke="white" stroke-width="1.66667" stroke-linecap="round" stroke-linejoin="round"/>
<path d="M21.333 14.666H22.9997" stroke="white" stroke-width="1.66667" stroke-linecap="round" stroke-linejoin="round"/>
<path d="M21.333 18H22.9997" stroke="white" stroke-width="1.66667" stroke-linecap="round" stroke-linejoin="round"/>
</svg>
