<svg width="36" height="36" viewBox="0 0 36 36" fill="none" xmlns="http://www.w3.org/2000/svg">
<rect width="36" height="36" rx="18" fill="#D566FC"/>
<path d="M15.5 18H15.5083" stroke="white" stroke-width="1.66667" stroke-linecap="round" stroke-linejoin="round"/>
<path d="M20.5 18H20.5083" stroke="white" stroke-width="1.66667" stroke-linecap="round" stroke-linejoin="round"/>
<path d="M16.333 21.334C16.7497 21.584 17.333 21.7507 17.9997 21.7507C18.6663 21.7507 19.2497 21.584 19.6663 21.334" stroke="white" stroke-width="1.66667" stroke-linecap="round" stroke-linejoin="round"/>
<path d="M23.8334 13.25C24.5884 14.1964 25.103 15.3115 25.3334 16.5C25.6152 16.6365 25.8528 16.8496 26.0191 17.1149C26.1854 17.3801 26.2736 17.6869 26.2736 18C26.2736 18.3131 26.1854 18.6199 26.0191 18.8851C25.8528 19.1504 25.6152 19.3635 25.3334 19.5C24.9737 21.1779 24.0494 22.6817 22.7148 23.7604C21.3803 24.8392 19.7161 25.4277 18.0001 25.4277C16.284 25.4277 14.6199 24.8392 13.2853 23.7604C11.9508 22.6817 11.0265 21.1779 10.6667 19.5C10.385 19.3635 10.1473 19.1504 9.98104 18.8851C9.81475 18.6199 9.72656 18.3131 9.72656 18C9.72656 17.6869 9.81475 17.3801 9.98104 17.1149C10.1473 16.8496 10.385 16.6365 10.6667 16.5C11.012 14.8088 11.93 13.2884 13.2659 12.1953C14.6019 11.1023 16.274 10.5035 18.0001 10.5C19.6667 10.5 20.9167 11.4167 20.9167 12.5833C20.9167 13.75 20.1667 14.6667 19.2501 14.6667C18.5834 14.6667 18.0001 14.3333 18.0001 13.8333" stroke="white" stroke-width="1.66667" stroke-linecap="round" stroke-linejoin="round"/>
</svg>
