<svg width="36" height="36" viewBox="0 0 36 36" fill="none" xmlns="http://www.w3.org/2000/svg">
<rect width="36" height="36" rx="18" fill="#C3941D"/>
<g clip-path="url(#clip0_2215_4714)">
<path d="M22.709 10.959V20.3757" stroke="white" stroke-width="1.66667" stroke-miterlimit="10"/>
<path d="M18.6934 13.9991L22.71 9.98242L26.7267 13.9991" stroke="white" stroke-width="1.66667" stroke-miterlimit="10"/>
<path d="M20.9657 26.6509C21.3112 26.65 21.6511 26.5635 21.955 26.3992C22.2589 26.2349 22.5174 25.9978 22.7074 25.7092C22.9557 26.0826 23.3174 26.3663 23.7392 26.5185C24.161 26.6707 24.6206 26.6833 25.0501 26.5544C25.4796 26.4256 25.8563 26.1621 26.1247 25.8029C26.3931 25.4436 26.5389 25.0077 26.5407 24.5592C26.5407 21.4176 22.7074 20.3926 22.7074 20.3926C22.7074 20.3926 18.874 21.4342 18.874 24.5592C18.874 24.8339 18.9281 25.1059 19.0332 25.3597C19.1384 25.6135 19.2924 25.844 19.4867 26.0383C19.6809 26.2325 19.9115 26.3866 20.1652 26.4917C20.419 26.5968 20.691 26.6509 20.9657 26.6509Z" stroke="white" stroke-width="1.66667" stroke-miterlimit="10"/>
<path d="M13.291 25.6745V16.2578" stroke="white" stroke-width="1.66667" stroke-miterlimit="10"/>
<path d="M17.3097 22.6328L13.293 26.6495L9.27637 22.6328" stroke="white" stroke-width="1.66667" stroke-miterlimit="10"/>
<path d="M15.032 9.98245C14.6874 9.98318 14.3483 10.0687 14.0446 10.2315C13.7408 10.3942 13.4818 10.6293 13.2904 10.9158C13.0417 10.5418 12.6792 10.2578 12.2565 10.1058C11.8339 9.95385 11.3736 9.94192 10.9437 10.0718C10.5137 10.2017 10.1371 10.4666 9.86932 10.8272C9.60158 11.1878 9.45702 11.625 9.45703 12.0741C9.45703 15.2158 13.2904 16.2408 13.2904 16.2408C13.2904 16.2408 17.1237 15.1991 17.1237 12.0741C17.1237 11.5194 16.9033 10.9874 16.5111 10.5951C16.1188 10.2028 15.5868 9.98245 15.032 9.98245Z" stroke="white" stroke-width="1.66667" stroke-miterlimit="10"/>
</g>
<defs>
<clipPath id="clip0_2215_4714">
<rect width="20" height="20" fill="white" transform="translate(8 8)"/>
</clipPath>
</defs>
</svg>
