<svg width="36" height="36" viewBox="0 0 36 36" fill="none" xmlns="http://www.w3.org/2000/svg">
<rect width="36" height="36" rx="18" fill="#C31D8A"/>
<path d="M24.667 10.5H20.5003C20.0401 10.5 19.667 10.8731 19.667 11.3333V15.5C19.667 15.9602 20.0401 16.3333 20.5003 16.3333H24.667C25.1272 16.3333 25.5003 15.9602 25.5003 15.5V11.3333C25.5003 10.8731 25.1272 10.5 24.667 10.5Z" stroke="white" stroke-width="1.66667" stroke-linecap="round" stroke-linejoin="round"/>
<path d="M16.3333 25.5007V14.6673C16.3333 14.4463 16.2455 14.2343 16.0893 14.0781C15.933 13.9218 15.721 13.834 15.5 13.834H11.3333C11.1123 13.834 10.9004 13.9218 10.7441 14.0781C10.5878 14.2343 10.5 14.4463 10.5 14.6673V24.6673C10.5 24.8883 10.5878 25.1003 10.7441 25.2566C10.9004 25.4129 11.1123 25.5007 11.3333 25.5007H21.3333C21.5543 25.5007 21.7663 25.4129 21.9226 25.2566C22.0789 25.1003 22.1667 24.8883 22.1667 24.6673V20.5007C22.1667 20.2796 22.0789 20.0677 21.9226 19.9114C21.7663 19.7551 21.5543 19.6673 21.3333 19.6673H10.5" stroke="white" stroke-width="1.66667" stroke-linecap="round" stroke-linejoin="round"/>
</svg>
