<svg width="36" height="36" viewBox="0 0 36 36" fill="none" xmlns="http://www.w3.org/2000/svg">
<rect width="36" height="36" rx="18" fill="#FCB766"/>
<path d="M17.9998 12.1671C18.5582 12.1671 19.1248 12.2421 19.6665 12.3838C21.1498 10.7171 23.8582 10.0171 25.0165 10.5005C26.1832 10.9838 24.6665 16.3338 24.6665 16.3338C25.1415 17.2255 25.4998 18.2005 25.4998 19.2005C25.4998 22.9171 22.1415 25.5005 17.9998 25.5005C13.8582 25.5005 10.4998 23.0005 10.4998 19.2005C10.4998 18.1588 10.9165 17.2005 11.3332 16.3338C11.3332 16.3338 9.75815 10.9838 10.9165 10.5005C12.0748 10.0171 14.8498 10.6921 16.3332 12.3588C16.8798 12.2331 17.4389 12.1688 17.9998 12.1671Z" stroke="white" stroke-width="1.66667" stroke-linecap="round" stroke-linejoin="round"/>
<path d="M14.667 19.666V20.0827" stroke="white" stroke-width="1.66667" stroke-linecap="round" stroke-linejoin="round"/>
<path d="M21.333 19.666V20.0827" stroke="white" stroke-width="1.66667" stroke-linecap="round" stroke-linejoin="round"/>
<path d="M17.375 21.541H18.625L18 22.166L17.375 21.541Z" stroke="white" stroke-width="1.66667" stroke-linecap="round" stroke-linejoin="round"/>
</svg>
