<svg width="36" height="36" viewBox="0 0 36 36" fill="none" xmlns="http://www.w3.org/2000/svg">
<rect width="36" height="36" rx="18" fill="#00997A"/>
<path d="M11.333 24.2493V11.7493C11.333 11.1968 11.5525 10.6669 11.9432 10.2762C12.3339 9.88551 12.8638 9.66602 13.4163 9.66602H24.6663V26.3327H13.4163C12.8638 26.3327 12.3339 26.1132 11.9432 25.7225C11.5525 25.3318 11.333 24.8019 11.333 24.2493ZM11.333 24.2493C11.333 23.6968 11.5525 23.1669 11.9432 22.7762C12.3339 22.3855 12.8638 22.166 13.4163 22.166H24.6663" stroke="white" stroke-width="1.66667" stroke-linecap="round" stroke-linejoin="round"/>
<path d="M21.3337 14.8333C21.3337 13.8333 20.5003 13 19.5003 13C18.8337 13 18.3337 13.25 18.0003 13.75C17.667 13.25 17.167 13 16.5003 13C15.5003 13 14.667 13.8333 14.667 14.8333C14.667 15.3333 14.917 15.8333 15.2503 16.1667C16.3337 17.25 18.0003 18.8333 18.0003 18.8333C18.0003 18.8333 19.667 17.25 20.7503 16.25C21.0837 15.9167 21.3337 15.4167 21.3337 14.8333Z" stroke="white" stroke-width="1.66667" stroke-linecap="round" stroke-linejoin="round"/>
</svg>
