<svg width="32" height="32" viewBox="0 0 32 32" fill="none" xmlns="http://www.w3.org/2000/svg">
<rect width="32" height="32" rx="16" fill="#5851BF"/>
<path d="M13 18.75V20.25M16 15.75V20.25M19 12.75V20.25M12.85 23.25H19.15C20.4101 23.25 21.0402 23.25 21.5215 23.0048C21.9448 22.789 22.289 22.4448 22.5048 22.0215C22.75 21.5402 22.75 20.9101 22.75 19.65V13.35C22.75 12.0899 22.75 11.4598 22.5048 10.9785C22.289 10.5552 21.9448 10.211 21.5215 9.99524C21.0402 9.75 20.4101 9.75 19.15 9.75H12.85C11.5899 9.75 10.9598 9.75 10.4785 9.99524C10.0552 10.211 9.71095 10.5552 9.49524 10.9785C9.25 11.4598 9.25 12.0899 9.25 13.35V19.65C9.25 20.9101 9.25 21.5402 9.49524 22.0215C9.71095 22.4448 10.0552 22.789 10.4785 23.0048C10.9598 23.25 11.5899 23.25 12.85 23.25Z" stroke="white" stroke-width="1.5" stroke-linecap="round" stroke-linejoin="round"/>
</svg>
