<svg width="33" height="32" viewBox="0 0 33 32" fill="none" xmlns="http://www.w3.org/2000/svg">
<rect x="0.5" width="32" height="32" rx="16" fill="#5851BF"/>
<path d="M19.5 13V10.75L21.75 8.5L22.5 10L24 10.75L21.75 13H19.5ZM19.5 13L16.5 16M24 16C24 20.1421 20.6421 23.5 16.5 23.5C12.3579 23.5 9 20.1421 9 16C9 11.8579 12.3579 8.5 16.5 8.5M20.25 16C20.25 18.0711 18.5711 19.75 16.5 19.75C14.4289 19.75 12.75 18.0711 12.75 16C12.75 13.9289 14.4289 12.25 16.5 12.25" stroke="white" stroke-width="1.5" stroke-linecap="round" stroke-linejoin="round"/>
</svg>
