<svg width="36" height="36" viewBox="0 0 36 36" fill="none" xmlns="http://www.w3.org/2000/svg">
<path d="M0 18C0 8.05888 8.05888 0 18 0C27.9411 0 36 8.05888 36 18C36 27.9411 27.9411 36 18 36C8.05888 36 0 27.9411 0 18Z" fill="#F1F2F4"/>
<path fill-rule="evenodd" clip-rule="evenodd" d="M18 10.7988C18.4971 10.7988 18.9 11.2018 18.9 11.6988V17.0988H24.3C24.7971 17.0988 25.2 17.5018 25.2 17.9988C25.2 18.4959 24.7971 18.8988 24.3 18.8988H18.9V24.2988C18.9 24.7959 18.4971 25.1988 18 25.1988C17.503 25.1988 17.1 24.7959 17.1 24.2988V18.8988H11.7C11.203 18.8988 10.8 18.4959 10.8 17.9988C10.8 17.5018 11.203 17.0988 11.7 17.0988H17.1V11.6988C17.1 11.2018 17.503 10.7988 18 10.7988Z" fill="#2F2B77"/>
</svg>
